<svg width="500" height="500" viewBox="0 0 500 500" fill="none" xmlns="http://www.w3.org/2000/svg">
<rect y="66.4062" width="500" height="367.188" rx="59.1797" fill="#28562D"/>
<path d="M34.8 178.66C38.21 178.66 41.015 175.745 41.015 172.17C41.015 168.87 38.21 165.955 34.8 165.955C31.115 165.955 28.31 168.87 28.31 172.17C28.31 175.745 31.115 178.66 34.8 178.66ZM41.6999 182.07H52.6999L71.3999 137.135H60.3999L41.6999 182.07ZM84.5539 178.66C92.2539 178.66 96.9289 174.92 96.9289 169.035C96.9289 162.325 90.9889 160.62 85.8189 159.465C82.9589 158.805 81.6939 158.64 81.6939 157.705C81.6939 156.88 82.6839 156.11 84.1689 156.11C86.8639 156.11 90.1089 157.595 92.4739 159.135L96.0489 152.645C92.8039 150.5 88.5689 148.905 84.1689 148.905C76.7439 148.905 72.2889 153.195 72.2889 158.695C72.2889 165.405 78.0639 166.67 83.2339 167.77C85.8739 168.32 87.5239 168.87 87.5239 169.86C87.5239 170.795 86.8089 171.29 84.8289 171.29C81.8039 171.29 77.7339 169.86 74.9839 167.935L71.0239 174.37C74.4889 177.065 79.6039 178.66 84.5539 178.66ZM111.661 154.625V149.565H101.046V178H111.661V165.955C111.661 160.785 114.961 157.705 120.571 157.705V148.905C116.721 148.905 113.531 151.105 111.661 154.625ZM138.826 178.66C144.106 178.66 148.121 176.515 150.981 173.215L143.996 167.605C142.841 168.925 140.751 169.86 138.936 169.86C135.691 169.86 132.996 167.055 132.996 163.7C132.996 160.455 135.691 157.705 138.881 157.705C140.696 157.705 142.731 158.64 143.831 159.905L150.816 154.185C148.066 150.995 144.051 148.905 138.991 148.905C130.246 148.905 122.876 155.67 122.876 163.755C122.876 171.84 130.191 178.66 138.826 178.66ZM150.142 182.07H161.142L179.842 137.135H168.842L150.142 182.07ZM198.551 169.035C198.001 169.53 196.956 169.86 195.966 169.86C194.536 169.86 193.546 168.65 193.546 166.945V157.925H199.156V149.565H193.546V141.755H183.426V149.565H179.851V157.925H183.426V169.035C183.426 174.7 187.386 178.66 193.051 178.66C195.581 178.66 198.606 177.45 200.366 175.745L198.551 169.035ZM218.242 170.74C215.547 170.74 213.457 168.98 212.632 166.285H232.762C232.762 155.34 227.372 148.905 218.242 148.905C209.442 148.905 203.227 155.01 203.227 163.7C203.227 172.445 209.607 178.66 218.682 178.66C223.027 178.66 227.867 176.845 230.397 174.26L224.567 168.375C222.697 169.86 220.387 170.74 218.242 170.74ZM218.242 156.825C220.552 156.825 222.367 158.365 223.137 160.73H212.797C213.732 158.365 215.712 156.825 218.242 156.825ZM273.124 148.905C268.944 148.905 265.534 150.72 263.884 153.58C261.959 150.665 258.659 148.905 254.974 148.905C251.619 148.905 248.979 150.5 247.604 153.03V149.565H236.989V178H247.604V161.5C247.604 159.3 249.254 157.705 251.619 157.705C253.984 157.705 255.634 159.41 255.634 161.83V178.055H265.754V161.5C265.754 159.3 267.404 157.705 269.769 157.705C272.134 157.705 273.784 159.41 273.784 161.83V178.055H283.904V159.905C283.904 153.47 279.064 148.905 273.124 148.905ZM309.047 148.905C305.362 148.905 302.227 150.39 299.972 152.92V149.565H289.357V187.46H299.972V174.645C302.227 177.175 305.362 178.66 309.047 178.66C316.692 178.66 322.082 172.5 322.082 163.755C322.082 155.065 316.692 148.905 309.047 148.905ZM305.692 169.86C302.337 169.86 299.972 167.33 299.972 163.755C299.972 160.235 302.337 157.705 305.692 157.705C309.377 157.705 311.962 160.235 311.962 163.755C311.962 167.33 309.377 169.86 305.692 169.86ZM326.637 178H337.252V139.555H326.637V178ZM356.818 148.905C352.033 148.905 347.798 150.28 343.838 152.26L347.083 158.695C349.448 157.485 351.263 156.77 353.958 156.77C357.258 156.77 359.788 158.42 359.788 161.225V161.39C357.753 160.565 355.663 160.125 353.793 160.125C346.918 160.125 341.528 164.03 341.528 169.585C341.528 174.92 346.368 178.66 352.473 178.66C355.168 178.66 357.863 177.725 359.788 175.965V178H369.963V161.225C369.963 153.47 364.023 148.905 356.818 148.905ZM355.058 172.39C353.023 172.39 351.593 171.125 351.593 169.31C351.593 167.385 353.133 166.01 355.278 166.01C356.928 166.01 358.798 166.395 359.788 166.89V169.585C359.568 171.235 357.588 172.39 355.058 172.39ZM392.233 169.035C391.683 169.53 390.638 169.86 389.648 169.86C388.218 169.86 387.228 168.65 387.228 166.945V157.925H392.838V149.565H387.228V141.755H377.108V149.565H373.533V157.925H377.108V169.035C377.108 174.7 381.068 178.66 386.733 178.66C389.263 178.66 392.288 177.45 394.048 175.745L392.233 169.035ZM411.924 170.74C409.229 170.74 407.139 168.98 406.314 166.285H426.444C426.444 155.34 421.054 148.905 411.924 148.905C403.124 148.905 396.909 155.01 396.909 163.7C396.909 172.445 403.289 178.66 412.364 178.66C416.709 178.66 421.549 176.845 424.079 174.26L418.249 168.375C416.379 169.86 414.069 170.74 411.924 170.74ZM411.924 156.825C414.234 156.825 416.049 158.365 416.819 160.73H406.479C407.414 158.365 409.394 156.825 411.924 156.825ZM442 178.66C449.7 178.66 454.375 174.92 454.375 169.035C454.375 162.325 448.435 160.62 443.265 159.465C440.405 158.805 439.14 158.64 439.14 157.705C439.14 156.88 440.13 156.11 441.615 156.11C444.31 156.11 447.555 157.595 449.92 159.135L453.495 152.645C450.25 150.5 446.015 148.905 441.615 148.905C434.19 148.905 429.735 153.195 429.735 158.695C429.735 165.405 435.51 166.67 440.68 167.77C443.32 168.32 444.97 168.87 444.97 169.86C444.97 170.795 444.255 171.29 442.275 171.29C439.25 171.29 435.18 169.86 432.43 167.935L428.47 174.37C431.935 177.065 437.05 178.66 442 178.66ZM454.092 182.07H465.093L483.793 137.135H472.793L454.092 182.07Z" fill="white"/>
<path d="M98.65 248H102.55V239.65H107.7V236.1H102.55V213.65H98.05L81 236.4L81.5 239.65H98.65V248ZM85.45 236.1L98.65 218.35V236.1H85.45ZM127.402 248.6C135.752 248.6 141.652 241.25 141.652 230.8C141.652 220.4 135.752 213.05 127.402 213.05C119.002 213.05 113.102 220.4 113.102 230.8C113.102 241.25 119.002 248.6 127.402 248.6ZM127.402 245C121.352 245 117.052 239.1 117.052 230.8C117.052 222.5 121.352 216.65 127.402 216.65C133.452 216.65 137.702 222.5 137.702 230.8C137.702 239.1 133.452 245 127.402 245ZM164.275 248H168.175V239.65H173.325V236.1H168.175V213.65H163.675L146.625 236.4L147.125 239.65H164.275V248ZM151.075 236.1L164.275 218.35V236.1H151.075ZM182.177 248.6C183.627 248.6 184.827 247.35 184.827 245.85C184.827 244.45 183.627 243.2 182.177 243.2C180.627 243.2 179.427 244.45 179.427 245.85C179.427 247.35 180.627 248.6 182.177 248.6ZM204.524 221.55C200.874 221.55 197.524 223.55 196.024 226.3V213.05H192.274V248H196.024V231.55C196.024 227.95 199.674 224.9 204.024 224.9C207.824 224.9 210.474 227.85 210.474 232.05V248H214.224V231.55C214.224 225.7 210.224 221.55 204.524 221.55ZM233.164 244.2C232.614 244.8 231.614 245.25 230.464 245.25C228.964 245.25 227.664 243.9 227.664 242V225.5H234.014V222.15H227.664V215.05H223.914V222.15H219.864V225.5H223.914V242C223.914 245.85 226.514 248.6 230.214 248.6C231.964 248.6 233.664 248 235.014 246.95L233.164 244.2ZM268.27 221.55C264.37 221.55 260.97 223.7 259.92 227.05C258.52 223.7 255.47 221.55 251.57 221.55C248.17 221.55 245.37 223.25 244.07 225.95V222.15H240.32V248H244.07V231.55C244.07 227.65 246.97 224.9 251.07 224.9C254.57 224.9 257.02 227.85 257.02 232.05V248H260.77V231.55C260.77 227.65 263.67 224.9 267.77 224.9C271.27 224.9 273.72 227.85 273.72 232.05V248H277.47V231.55C277.47 225.7 273.67 221.55 268.27 221.55ZM285.046 248H288.796V213.05H285.046V248ZM84.65 284.45C86 284.45 87.1 283.3 87.1 281.95C87.1 280.65 86 279.5 84.65 279.5C83.25 279.5 82.15 280.65 82.15 281.95C82.15 283.3 83.25 284.45 84.65 284.45ZM82.75 315H86.5V289.15H82.75V315ZM106.33 288.55C102.68 288.55 99.3305 290.55 97.8305 293.3V289.15H94.0805V315H97.8305V298.55C97.8305 294.95 101.48 291.9 105.83 291.9C109.63 291.9 112.28 294.85 112.28 299.05V315H116.03V298.55C116.03 292.7 112.03 288.55 106.33 288.55ZM143.82 280.05V294C141.87 290.6 138.57 288.55 134.42 288.55C127.62 288.55 122.52 294.15 122.52 302.05C122.52 310 127.62 315.6 134.42 315.6C138.57 315.6 141.87 313.55 143.82 310.15V315H147.57V280.05H143.82ZM135.12 312.25C130.07 312.25 126.47 308 126.47 302.05C126.47 296.1 130.07 291.9 135.12 291.9C140.22 291.9 143.82 296.1 143.82 302.05C143.82 308 140.22 312.25 135.12 312.25ZM167.155 312.25C162.055 312.25 158.505 308.55 157.955 303.5H179.105C179.105 294.45 174.655 288.55 166.855 288.55C159.905 288.55 154.105 294.3 154.105 302C154.105 309.95 160.305 315.6 167.205 315.6C170.805 315.6 175.355 314.05 177.605 311.6L175.305 309.15C173.705 310.9 170.205 312.25 167.155 312.25ZM167.005 291.9C172.155 291.9 174.905 295.5 175.405 300.15H158.005C158.705 295.15 162.405 291.9 167.005 291.9ZM207.391 315L197.441 301.8L206.991 289.15H202.591L195.241 298.9L187.841 289.15H183.441L193.041 301.8L183.041 315H187.441L195.241 304.7L202.991 315H207.391ZM215.38 315.6C216.83 315.6 218.03 314.35 218.03 312.85C218.03 311.45 216.83 310.2 215.38 310.2C213.83 310.2 212.63 311.45 212.63 312.85C212.63 314.35 213.83 315.6 215.38 315.6ZM237.727 288.55C234.077 288.55 230.727 290.55 229.227 293.3V280.05H225.477V315H229.227V298.55C229.227 294.95 232.877 291.9 237.227 291.9C241.027 291.9 243.677 294.85 243.677 299.05V315H247.427V298.55C247.427 292.7 243.427 288.55 237.727 288.55ZM266.367 311.2C265.817 311.8 264.817 312.25 263.667 312.25C262.167 312.25 260.867 310.9 260.867 309V292.5H267.217V289.15H260.867V282.05H257.117V289.15H253.067V292.5H257.117V309C257.117 312.85 259.717 315.6 263.417 315.6C265.167 315.6 266.867 315 268.217 313.95L266.367 311.2ZM301.473 288.55C297.573 288.55 294.173 290.7 293.123 294.05C291.723 290.7 288.673 288.55 284.773 288.55C281.373 288.55 278.573 290.25 277.273 292.95V289.15H273.523V315H277.273V298.55C277.273 294.65 280.173 291.9 284.273 291.9C287.773 291.9 290.223 294.85 290.223 299.05V315H293.973V298.55C293.973 294.65 296.873 291.9 300.973 291.9C304.473 291.9 306.923 294.85 306.923 299.05V315H310.673V298.55C310.673 292.7 306.873 288.55 301.473 288.55ZM318.249 315H321.999V280.05H318.249V315ZM84.65 351.45C86 351.45 87.1 350.3 87.1 348.95C87.1 347.65 86 346.5 84.65 346.5C83.25 346.5 82.15 347.65 82.15 348.95C82.15 350.3 83.25 351.45 84.65 351.45ZM82.75 382H86.5V356.15H82.75V382ZM106.33 355.55C102.68 355.55 99.3305 357.55 97.8305 360.3V356.15H94.0805V382H97.8305V365.55C97.8305 361.95 101.48 358.9 105.83 358.9C109.63 358.9 112.28 361.85 112.28 366.05V382H116.03V365.55C116.03 359.7 112.03 355.55 106.33 355.55ZM143.82 347.05V361C141.87 357.6 138.57 355.55 134.42 355.55C127.62 355.55 122.52 361.15 122.52 369.05C122.52 377 127.62 382.6 134.42 382.6C138.57 382.6 141.87 380.55 143.82 377.15V382H147.57V347.05H143.82ZM135.12 379.25C130.07 379.25 126.47 375 126.47 369.05C126.47 363.1 130.07 358.9 135.12 358.9C140.22 358.9 143.82 363.1 143.82 369.05C143.82 375 140.22 379.25 135.12 379.25ZM167.155 379.25C162.055 379.25 158.505 375.55 157.955 370.5H179.105C179.105 361.45 174.655 355.55 166.855 355.55C159.905 355.55 154.105 361.3 154.105 369C154.105 376.95 160.305 382.6 167.205 382.6C170.805 382.6 175.355 381.05 177.605 378.6L175.305 376.15C173.705 377.9 170.205 379.25 167.155 379.25ZM167.005 358.9C172.155 358.9 174.905 362.5 175.405 367.15H158.005C158.705 362.15 162.405 358.9 167.005 358.9ZM207.391 382L197.441 368.8L206.991 356.15H202.591L195.241 365.9L187.841 356.15H183.441L193.041 368.8L183.041 382H187.441L195.241 371.7L202.991 382H207.391ZM215.38 382.6C216.83 382.6 218.03 381.35 218.03 379.85C218.03 378.45 216.83 377.2 215.38 377.2C213.83 377.2 212.63 378.45 212.63 379.85C212.63 381.35 213.83 382.6 215.38 382.6ZM234.577 382.6C239.927 382.6 244.027 379.55 244.027 374.8C244.027 369.9 239.727 368.5 235.577 367.2C230.777 365.65 228.877 364.95 228.877 362.7C228.877 360.2 231.277 358.9 234.177 358.9C236.477 358.9 239.027 359.7 241.627 361.35L243.427 358.45C240.677 356.65 237.377 355.55 234.177 355.55C229.027 355.55 225.127 358.45 225.127 363.15C225.127 366.85 227.527 368.7 233.777 370.5C237.277 371.5 240.277 372.4 240.277 375.2C240.277 377.65 237.977 379.25 234.577 379.25C231.727 379.25 228.777 378.15 225.827 376L223.877 378.75C226.977 381.25 230.977 382.6 234.577 382.6ZM258.782 382H262.382L273.232 356.15H269.032L260.582 377.6L251.982 356.15H247.782L258.782 382ZM298.505 356.15V360.6C296.505 357.45 293.205 355.55 289.105 355.55C282.155 355.55 277.205 360.6 277.205 367.8C277.205 375 282.155 380.1 289.105 380.1C293.205 380.1 296.505 378.2 298.505 375.05V379.25C298.505 384.3 295.005 387.25 289.055 387.25C285.855 387.25 282.755 386.1 280.755 384.2L279.105 387.15C281.455 389.15 285.355 390.6 289.555 390.6C297.005 390.6 302.255 385.9 302.255 379.25V356.15H298.505ZM289.805 376.75C284.755 376.75 281.155 373.05 281.155 367.8C281.155 362.6 284.755 358.9 289.805 358.9C294.905 358.9 298.505 362.6 298.505 367.8C298.505 373.05 294.905 376.75 289.805 376.75Z" fill="white"/>
<line x1="55" y1="203" x2="55" y2="393" stroke="white" stroke-width="8"/>
</svg>
