<svg width="500" height="500" viewBox="0 0 500 500" fill="none" xmlns="http://www.w3.org/2000/svg">
<rect y="66.4062" width="500" height="367.188" rx="59.1797" fill="#28562D"/>
<path d="M37.2 198.84C41.54 198.84 45.11 195.13 45.11 190.58C45.11 186.38 41.54 182.67 37.2 182.67C32.51 182.67 28.94 186.38 28.94 190.58C28.94 195.13 32.51 198.84 37.2 198.84ZM45.9817 203.18H59.9817L83.7817 145.99H69.7817L45.9817 203.18ZM100.523 198.84C110.323 198.84 116.273 194.08 116.273 186.59C116.273 178.05 108.713 175.88 102.133 174.41C98.4932 173.57 96.8832 173.36 96.8832 172.17C96.8832 171.12 98.1432 170.14 100.033 170.14C103.463 170.14 107.593 172.03 110.603 173.99L115.153 165.73C111.023 163 105.633 160.97 100.033 160.97C90.5832 160.97 84.9132 166.43 84.9132 173.43C84.9132 181.97 92.2632 183.58 98.8432 184.98C102.203 185.68 104.303 186.38 104.303 187.64C104.303 188.83 103.393 189.46 100.873 189.46C97.0232 189.46 91.8432 187.64 88.3432 185.19L83.3032 193.38C87.7132 196.81 94.2232 198.84 100.523 198.84ZM135.023 168.25V161.81H121.513V198H135.023V182.67C135.023 176.09 139.223 172.17 146.363 172.17V160.97C141.463 160.97 137.403 163.77 135.023 168.25ZM169.596 198.84C176.316 198.84 181.426 196.11 185.066 191.91L176.176 184.77C174.706 186.45 172.046 187.64 169.736 187.64C165.606 187.64 162.176 184.07 162.176 179.8C162.176 175.67 165.606 172.17 169.666 172.17C171.976 172.17 174.566 173.36 175.966 174.97L184.856 167.69C181.356 163.63 176.246 160.97 169.806 160.97C158.676 160.97 149.296 169.58 149.296 179.87C149.296 190.16 158.606 198.84 169.596 198.84ZM183.999 203.18H197.999L221.799 145.99H207.799L183.999 203.18ZM241.621 160.97C235.531 160.97 230.141 162.72 225.101 165.24L229.231 173.43C232.241 171.89 234.551 170.98 237.981 170.98C242.181 170.98 245.401 173.08 245.401 176.65V176.86C242.811 175.81 240.151 175.25 237.771 175.25C229.021 175.25 222.161 180.22 222.161 187.29C222.161 194.08 228.321 198.84 236.091 198.84C239.521 198.84 242.951 197.65 245.401 195.41V198H258.351V176.65C258.351 166.78 250.791 160.97 241.621 160.97ZM239.381 190.86C236.791 190.86 234.971 189.25 234.971 186.94C234.971 184.49 236.931 182.74 239.661 182.74C241.761 182.74 244.141 183.23 245.401 183.86V187.29C245.121 189.39 242.601 190.86 239.381 190.86ZM279.625 198.84C289.425 198.84 295.375 194.08 295.375 186.59C295.375 178.05 287.815 175.88 281.235 174.41C277.595 173.57 275.985 173.36 275.985 172.17C275.985 171.12 277.245 170.14 279.135 170.14C282.565 170.14 286.695 172.03 289.705 173.99L294.255 165.73C290.125 163 284.735 160.97 279.135 160.97C269.685 160.97 264.015 166.43 264.015 173.43C264.015 181.97 271.365 183.58 277.945 184.98C281.305 185.68 283.405 186.38 283.405 187.64C283.405 188.83 282.495 189.46 279.975 189.46C276.125 189.46 270.945 187.64 267.445 185.19L262.405 193.38C266.815 196.81 273.325 198.84 279.625 198.84ZM315.035 198.84C324.835 198.84 330.785 194.08 330.785 186.59C330.785 178.05 323.225 175.88 316.645 174.41C313.005 173.57 311.395 173.36 311.395 172.17C311.395 171.12 312.655 170.14 314.545 170.14C317.975 170.14 322.105 172.03 325.115 173.99L329.665 165.73C325.535 163 320.145 160.97 314.545 160.97C305.095 160.97 299.425 166.43 299.425 173.43C299.425 181.97 306.775 183.58 313.355 184.98C316.715 185.68 318.815 186.38 318.815 187.64C318.815 188.83 317.905 189.46 315.385 189.46C311.535 189.46 306.355 187.64 302.855 185.19L297.815 193.38C302.225 196.81 308.735 198.84 315.035 198.84ZM353.455 188.76C350.025 188.76 347.365 186.52 346.315 183.09H371.935C371.935 169.16 365.075 160.97 353.455 160.97C342.255 160.97 334.345 168.74 334.345 179.8C334.345 190.93 342.465 198.84 354.015 198.84C359.545 198.84 365.705 196.53 368.925 193.24L361.505 185.75C359.125 187.64 356.185 188.76 353.455 188.76ZM353.455 171.05C356.395 171.05 358.705 173.01 359.685 176.02H346.525C347.715 173.01 350.235 171.05 353.455 171.05ZM398.804 186.59C398.104 187.22 396.774 187.64 395.514 187.64C393.694 187.64 392.434 186.1 392.434 183.93V172.45H399.574V161.81H392.434V151.87H379.554V161.81H375.004V172.45H379.554V186.59C379.554 193.8 384.594 198.84 391.804 198.84C395.024 198.84 398.874 197.3 401.114 195.13L398.804 186.59ZM420.855 198.84C430.655 198.84 436.605 194.08 436.605 186.59C436.605 178.05 429.045 175.88 422.465 174.41C418.825 173.57 417.215 173.36 417.215 172.17C417.215 171.12 418.475 170.14 420.365 170.14C423.795 170.14 427.925 172.03 430.935 173.99L435.485 165.73C431.355 163 425.965 160.97 420.365 160.97C410.915 160.97 405.245 166.43 405.245 173.43C405.245 181.97 412.595 183.58 419.175 184.98C422.535 185.68 424.635 186.38 424.635 187.64C424.635 188.83 423.725 189.46 421.205 189.46C417.355 189.46 412.175 187.64 408.675 185.19L403.635 193.38C408.045 196.81 414.555 198.84 420.855 198.84ZM436.245 203.18H450.245L474.045 145.99H460.045L436.245 203.18Z" fill="white"/>
<path d="M102.175 277.875C94.525 277.875 89.2 272.325 88.375 264.75H120.1C120.1 251.175 113.425 242.325 101.725 242.325C91.3 242.325 82.6 250.95 82.6 262.5C82.6 274.425 91.9 282.9 102.25 282.9C107.65 282.9 114.475 280.575 117.85 276.9L114.4 273.225C112 275.85 106.75 277.875 102.175 277.875ZM101.95 247.35C109.675 247.35 113.8 252.75 114.55 259.725H88.45C89.5 252.225 95.05 247.35 101.95 247.35ZM171.229 242.325C165.379 242.325 160.279 245.55 158.704 250.575C156.604 245.55 152.029 242.325 146.179 242.325C141.079 242.325 136.879 244.875 134.929 248.925V243.225H129.304V282H134.929V257.325C134.929 251.475 139.279 247.35 145.429 247.35C150.679 247.35 154.354 251.775 154.354 258.075V282H159.979V257.325C159.979 251.475 164.329 247.35 170.479 247.35C175.729 247.35 179.404 251.775 179.404 258.075V282H185.029V257.325C185.029 248.55 179.329 242.325 171.229 242.325ZM214.394 282.9C225.269 282.9 234.419 273.6 234.419 262.575C234.419 251.55 225.269 242.325 214.394 242.325C203.519 242.325 194.294 251.55 194.294 262.575C194.294 273.6 203.519 282.9 214.394 282.9ZM214.394 277.875C206.669 277.875 200.219 270.9 200.219 262.575C200.219 254.325 206.669 247.35 214.394 247.35C222.044 247.35 228.494 254.325 228.494 262.575C228.494 270.9 222.044 277.875 214.394 277.875ZM246.484 236.175C248.509 236.175 250.159 234.45 250.159 232.425C250.159 230.475 248.509 228.75 246.484 228.75C244.384 228.75 242.734 230.475 242.734 232.425C242.734 234.45 244.384 236.175 246.484 236.175ZM239.809 295.35C245.359 295.35 249.259 291.225 249.259 285.45V243.225H243.634V285.45C243.634 288.3 241.909 290.325 239.434 290.325C237.859 290.325 235.834 289.95 234.634 289.5L233.734 294.15C235.234 294.825 237.709 295.35 239.809 295.35ZM263.329 236.175C265.354 236.175 267.004 234.45 267.004 232.425C267.004 230.475 265.354 228.75 263.329 228.75C261.229 228.75 259.579 230.475 259.579 232.425C259.579 234.45 261.229 236.175 263.329 236.175ZM260.479 282H266.104V243.225H260.479V282ZM270.5 287.55H276.875L303.2 226.275H296.825L270.5 287.55ZM87.475 328.175C89.5 328.175 91.15 326.45 91.15 324.425C91.15 322.475 89.5 320.75 87.475 320.75C85.375 320.75 83.725 322.475 83.725 324.425C83.725 326.45 85.375 328.175 87.475 328.175ZM84.625 374H90.25V335.225H84.625V374ZM119.996 334.325C114.521 334.325 109.496 337.325 107.246 341.45V335.225H101.621V374H107.246V349.325C107.246 343.925 112.721 339.35 119.246 339.35C124.946 339.35 128.921 343.775 128.921 350.075V374H134.546V349.325C134.546 340.55 128.546 334.325 119.996 334.325ZM176.23 321.575V342.5C173.305 337.4 168.355 334.325 162.13 334.325C151.93 334.325 144.28 342.725 144.28 354.575C144.28 366.5 151.93 374.9 162.13 374.9C168.355 374.9 173.305 371.825 176.23 366.725V374H181.855V321.575H176.23ZM163.18 369.875C155.605 369.875 150.205 363.5 150.205 354.575C150.205 345.65 155.605 339.35 163.18 339.35C170.83 339.35 176.23 345.65 176.23 354.575C176.23 363.5 170.83 369.875 163.18 369.875ZM211.233 369.875C203.583 369.875 198.258 364.325 197.433 356.75H229.158C229.158 343.175 222.483 334.325 210.783 334.325C200.358 334.325 191.658 342.95 191.658 354.5C191.658 366.425 200.958 374.9 211.308 374.9C216.708 374.9 223.533 372.575 226.908 368.9L223.458 365.225C221.058 367.85 215.808 369.875 211.233 369.875ZM211.008 339.35C218.733 339.35 222.858 344.75 223.608 351.725H197.508C198.558 344.225 204.108 339.35 211.008 339.35ZM271.587 374L256.662 354.2L270.987 335.225H264.387L253.362 349.85L242.262 335.225H235.662L250.062 354.2L235.062 374H241.662L253.362 358.55L264.987 374H271.587ZM283.571 374.9C285.746 374.9 287.546 373.025 287.546 370.775C287.546 368.675 285.746 366.8 283.571 366.8C281.246 366.8 279.446 368.675 279.446 370.775C279.446 373.025 281.246 374.9 283.571 374.9ZM312.365 374.9C320.39 374.9 326.54 370.325 326.54 363.2C326.54 355.85 320.09 353.75 313.865 351.8C306.665 349.475 303.815 348.425 303.815 345.05C303.815 341.3 307.415 339.35 311.765 339.35C315.215 339.35 319.04 340.55 322.94 343.025L325.64 338.675C321.515 335.975 316.565 334.325 311.765 334.325C304.04 334.325 298.19 338.675 298.19 345.725C298.19 351.275 301.79 354.05 311.165 356.75C316.415 358.25 320.915 359.6 320.915 363.8C320.915 367.475 317.465 369.875 312.365 369.875C308.09 369.875 303.665 368.225 299.24 365L296.315 369.125C300.965 372.875 306.965 374.9 312.365 374.9ZM348.672 374H354.072L370.347 335.225H364.047L351.372 367.4L338.472 335.225H332.172L348.672 374ZM408.258 335.225V341.9C405.258 337.175 400.308 334.325 394.158 334.325C383.733 334.325 376.308 341.9 376.308 352.7C376.308 363.5 383.733 371.15 394.158 371.15C400.308 371.15 405.258 368.3 408.258 363.575V369.875C408.258 377.45 403.008 381.875 394.083 381.875C389.283 381.875 384.633 380.15 381.633 377.3L379.158 381.725C382.683 384.725 388.533 386.9 394.833 386.9C406.008 386.9 413.883 379.85 413.883 369.875V335.225H408.258ZM395.208 366.125C387.633 366.125 382.233 360.575 382.233 352.7C382.233 344.9 387.633 339.35 395.208 339.35C402.858 339.35 408.258 344.9 408.258 352.7C408.258 360.575 402.858 366.125 395.208 366.125Z" fill="white"/>
<line x1="55" y1="217" x2="55" y2="379" stroke="white" stroke-width="8"/>
</svg>
