<svg width="500" height="500" viewBox="0 0 500 500" fill="none" xmlns="http://www.w3.org/2000/svg">
<rect y="66.4062" width="500" height="367.188" rx="59.1797" fill="#28562D"/>
<path d="M37.2 161.84C41.54 161.84 45.11 158.13 45.11 153.58C45.11 149.38 41.54 145.67 37.2 145.67C32.51 145.67 28.94 149.38 28.94 153.58C28.94 158.13 32.51 161.84 37.2 161.84ZM45.9817 166.18H59.9817L83.7817 108.99H69.7817L45.9817 166.18Z" fill="white"/>
<path d="M89.36 216.48C93.64 216.48 96.92 214.04 96.92 210.24C96.92 206.32 93.48 205.2 90.16 204.16C86.32 202.92 84.8 202.36 84.8 200.56C84.8 198.56 86.72 197.52 89.04 197.52C90.88 197.52 92.92 198.16 95 199.48L96.44 197.16C94.24 195.72 91.6 194.84 89.04 194.84C84.92 194.84 81.8 197.16 81.8 200.92C81.8 203.88 83.72 205.36 88.72 206.8C91.52 207.6 93.92 208.32 93.92 210.56C93.92 212.52 92.08 213.8 89.36 213.8C87.08 213.8 84.72 212.92 82.36 211.2L80.8 213.4C83.28 215.4 86.48 216.48 89.36 216.48ZM105.164 199.36V195.32H102.164V216H105.164V204.44C105.164 200.4 108.484 197.52 113.164 197.52V194.84C109.364 194.84 106.404 196.6 105.164 199.36ZM126.913 216.48C129.793 216.48 132.433 215.28 134.393 213.32L132.313 211.28C130.913 212.84 128.993 213.8 126.913 213.8C122.793 213.8 119.353 210.08 119.353 205.64C119.353 201.24 122.793 197.52 126.913 197.52C128.953 197.52 130.833 198.44 132.193 199.92L134.273 197.88C132.313 196 129.713 194.84 126.913 194.84C121.113 194.84 116.193 199.76 116.193 205.64C116.193 211.52 121.113 216.48 126.913 216.48ZM135.313 218.96H138.713L152.753 186.28H149.353L135.313 218.96ZM98.2 233.04V244.2C96.64 241.48 94 239.84 90.68 239.84C85.24 239.84 81.16 244.32 81.16 250.64C81.16 257 85.24 261.48 90.68 261.48C94 261.48 96.64 259.84 98.2 257.12V261H101.2V233.04H98.2ZM91.24 258.8C87.2 258.8 84.32 255.4 84.32 250.64C84.32 245.88 87.2 242.52 91.24 242.52C95.32 242.52 98.2 245.88 98.2 250.64C98.2 255.4 95.32 258.8 91.24 258.8ZM116.868 258.8C112.788 258.8 109.948 255.84 109.508 251.8H126.428C126.428 244.56 122.868 239.84 116.628 239.84C111.068 239.84 106.428 244.44 106.428 250.6C106.428 256.96 111.388 261.48 116.908 261.48C119.788 261.48 123.428 260.24 125.228 258.28L123.388 256.32C122.108 257.72 119.308 258.8 116.868 258.8ZM116.748 242.52C120.868 242.52 123.068 245.4 123.468 249.12H109.548C110.108 245.12 113.068 242.52 116.748 242.52ZM138.657 261.48C142.937 261.48 146.217 259.04 146.217 255.24C146.217 251.32 142.777 250.2 139.457 249.16C135.617 247.92 134.097 247.36 134.097 245.56C134.097 243.56 136.017 242.52 138.337 242.52C140.177 242.52 142.217 243.16 144.297 244.48L145.737 242.16C143.537 240.72 140.897 239.84 138.337 239.84C134.217 239.84 131.097 242.16 131.097 245.92C131.097 248.88 133.017 250.36 138.017 251.8C140.817 252.6 143.217 253.32 143.217 255.56C143.217 257.52 141.377 258.8 138.657 258.8C136.377 258.8 134.017 257.92 131.657 256.2L130.097 258.4C132.577 260.4 135.777 261.48 138.657 261.48ZM160.781 261.48C163.661 261.48 166.301 260.28 168.261 258.32L166.181 256.28C164.781 257.84 162.861 258.8 160.781 258.8C156.661 258.8 153.221 255.08 153.221 250.64C153.221 246.24 156.661 242.52 160.781 242.52C162.821 242.52 164.701 243.44 166.061 244.92L168.141 242.88C166.181 241 163.581 239.84 160.781 239.84C154.981 239.84 150.061 244.76 150.061 250.64C150.061 256.52 154.981 261.48 160.781 261.48ZM176.14 244.36V240.32H173.14V261H176.14V249.44C176.14 245.4 179.46 242.52 184.14 242.52V239.84C180.34 239.84 177.38 241.6 176.14 244.36ZM189.77 236.56C190.85 236.56 191.73 235.64 191.73 234.56C191.73 233.52 190.85 232.6 189.77 232.6C188.65 232.6 187.77 233.52 187.77 234.56C187.77 235.64 188.65 236.56 189.77 236.56ZM188.25 261H191.25V240.32H188.25V261ZM208.074 239.84C204.754 239.84 202.114 241.48 200.554 244.2V240.32H197.554V267.88H200.554V257.12C202.114 259.84 204.754 261.48 208.074 261.48C213.514 261.48 217.594 257 217.594 250.64C217.594 244.32 213.514 239.84 208.074 239.84ZM207.514 258.8C203.434 258.8 200.554 255.4 200.554 250.64C200.554 245.88 203.434 242.52 207.514 242.52C211.554 242.52 214.434 245.88 214.434 250.64C214.434 255.4 211.554 258.8 207.514 258.8ZM231.862 257.96C231.422 258.44 230.622 258.8 229.702 258.8C228.502 258.8 227.462 257.72 227.462 256.2V243H232.542V240.32H227.462V234.64H224.462V240.32H221.222V243H224.462V256.2C224.462 259.28 226.542 261.48 229.502 261.48C230.902 261.48 232.262 261 233.342 260.16L231.862 257.96ZM239.067 236.56C240.147 236.56 241.027 235.64 241.027 234.56C241.027 233.52 240.147 232.6 239.067 232.6C237.947 232.6 237.067 233.52 237.067 234.56C237.067 235.64 237.947 236.56 239.067 236.56ZM237.547 261H240.547V240.32H237.547V261ZM256.171 261.48C261.971 261.48 266.851 256.52 266.851 250.64C266.851 244.76 261.971 239.84 256.171 239.84C250.371 239.84 245.451 244.76 245.451 250.64C245.451 256.52 250.371 261.48 256.171 261.48ZM256.171 258.8C252.051 258.8 248.611 255.08 248.611 250.64C248.611 246.24 252.051 242.52 256.171 242.52C260.251 242.52 263.691 246.24 263.691 250.64C263.691 255.08 260.251 258.8 256.171 258.8ZM281.646 239.84C278.726 239.84 276.046 241.44 274.846 243.64V240.32H271.846V261H274.846V247.84C274.846 244.96 277.766 242.52 281.246 242.52C284.286 242.52 286.406 244.88 286.406 248.24V261H289.406V247.84C289.406 243.16 286.206 239.84 281.646 239.84ZM297.558 261.48C298.718 261.48 299.678 260.48 299.678 259.28C299.678 258.16 298.718 257.16 297.558 257.16C296.318 257.16 295.358 258.16 295.358 259.28C295.358 260.48 296.318 261.48 297.558 261.48ZM327.955 239.84C324.835 239.84 322.115 241.56 321.275 244.24C320.155 241.56 317.715 239.84 314.595 239.84C311.875 239.84 309.635 241.2 308.595 243.36V240.32H305.595V261H308.595V247.84C308.595 244.72 310.915 242.52 314.195 242.52C316.995 242.52 318.955 244.88 318.955 248.24V261H321.955V247.84C321.955 244.72 324.275 242.52 327.555 242.52C330.355 242.52 332.315 244.88 332.315 248.24V261H335.315V247.84C335.315 243.16 332.275 239.84 327.955 239.84ZM357.536 233.04V244.2C355.976 241.48 353.336 239.84 350.016 239.84C344.576 239.84 340.496 244.32 340.496 250.64C340.496 257 344.576 261.48 350.016 261.48C353.336 261.48 355.976 259.84 357.536 257.12V261H360.536V233.04H357.536ZM350.576 258.8C346.536 258.8 343.656 255.4 343.656 250.64C343.656 245.88 346.536 242.52 350.576 242.52C354.656 242.52 357.536 245.88 357.536 250.64C357.536 255.4 354.656 258.8 350.576 258.8ZM86.72 282.48C86.72 280.96 87.76 279.88 88.96 279.88C89.88 279.88 90.68 280.24 91.12 280.72L92.6 278.52C91.52 277.68 90.16 277.2 88.76 277.2C85.8 277.2 83.72 279.4 83.72 282.48V285.32H80.48V288H83.72V306H86.72V288H91.8V285.32H86.72V282.48ZM96.0634 306H99.0634V278.04H96.0634V306ZM113.526 284.84C111.526 284.84 109.046 285.36 106.086 286.84L107.286 289.28C109.166 288.32 111.246 287.4 113.326 287.4C117.806 287.4 118.926 290.6 118.926 293.4V294.16C116.806 293.48 114.446 293 112.206 293C107.766 293 104.086 295.76 104.086 299.88C104.086 303.96 107.286 306.48 111.646 306.48C114.366 306.48 117.446 305.2 118.926 302.76V306H121.926V293.4C121.926 288.4 119.166 284.84 113.526 284.84ZM112.166 303.84C109.246 303.84 107.006 302.32 107.006 299.76C107.006 297.28 109.606 295.52 112.686 295.52C114.926 295.52 117.046 295.84 118.926 296.36V299.52C118.126 302.44 114.886 303.84 112.166 303.84ZM144.136 285.32V288.88C142.536 286.36 139.896 284.84 136.616 284.84C131.056 284.84 127.096 288.88 127.096 294.64C127.096 300.4 131.056 304.48 136.616 304.48C139.896 304.48 142.536 302.96 144.136 300.44V303.8C144.136 307.84 141.336 310.2 136.576 310.2C134.016 310.2 131.536 309.28 129.936 307.76L128.616 310.12C130.496 311.72 133.616 312.88 136.976 312.88C142.936 312.88 147.136 309.12 147.136 303.8V285.32H144.136ZM137.176 301.8C133.136 301.8 130.256 298.84 130.256 294.64C130.256 290.48 133.136 287.52 137.176 287.52C141.256 287.52 144.136 290.48 144.136 294.64C144.136 298.84 141.256 301.8 137.176 301.8ZM155.565 306.48C156.725 306.48 157.685 305.48 157.685 304.28C157.685 303.16 156.725 302.16 155.565 302.16C154.325 302.16 153.365 303.16 153.365 304.28C153.365 305.48 154.325 306.48 155.565 306.48ZM172.683 302.96C172.243 303.44 171.443 303.8 170.523 303.8C169.323 303.8 168.283 302.72 168.283 301.2V288H173.363V285.32H168.283V279.64H165.283V285.32H162.043V288H165.283V301.2C165.283 304.28 167.363 306.48 170.323 306.48C171.723 306.48 173.083 306 174.163 305.16L172.683 302.96ZM196.127 306L188.167 295.44L195.807 285.32H192.287L186.407 293.12L180.487 285.32H176.967L184.647 295.44L176.647 306H180.167L186.407 297.76L192.607 306H196.127ZM209.518 302.96C209.078 303.44 208.278 303.8 207.358 303.8C206.158 303.8 205.118 302.72 205.118 301.2V288H210.198V285.32H205.118V279.64H202.118V285.32H198.878V288H202.118V301.2C202.118 304.28 204.198 306.48 207.158 306.48C208.558 306.48 209.918 306 210.998 305.16L209.518 302.96ZM103.44 332.32C103.44 327.16 99 323.52 93.32 323.52H82.16V351H85.28V341.12H92.56L99.52 351H103.08L95.96 340.84C100.32 339.92 103.44 336.64 103.44 332.32ZM85.28 326.48H92.76C97.24 326.48 100.28 328.64 100.28 332.32C100.28 336 97.24 338.16 92.76 338.16H85.28V326.48ZM127.896 326.48V323.52H108.176V351H127.896V348.04H111.336V338.48H126.256V335.52H111.336V326.48H127.896ZM155.614 351H159.014L146.894 323.52H143.494L131.374 351H134.774L137.534 344.76H152.854L155.614 351ZM138.814 341.8L145.214 327.36L151.574 341.8H138.814ZM164.049 351H173.329C182.049 351 188.209 345.28 188.209 337.24C188.209 329.2 182.049 323.52 173.329 323.52H164.049V351ZM167.169 348.16V326.36H173.329C180.209 326.36 185.049 330.88 185.049 337.24C185.049 343.64 180.209 348.16 173.329 348.16H167.169ZM194.518 351H197.638V330.24L207.838 349.4L218.038 330.24V351H221.158V323.52H218.038L207.838 342.68L197.638 323.52H194.518V351ZM247.778 326.48V323.52H228.058V351H247.778V348.04H231.218V338.48H246.138V335.52H231.218V326.48H247.778ZM255.097 351.48C256.257 351.48 257.217 350.48 257.217 349.28C257.217 348.16 256.257 347.16 255.097 347.16C253.857 347.16 252.897 348.16 252.897 349.28C252.897 350.48 253.857 351.48 255.097 351.48ZM285.494 329.84C282.374 329.84 279.654 331.56 278.814 334.24C277.694 331.56 275.254 329.84 272.134 329.84C269.414 329.84 267.174 331.2 266.134 333.36V330.32H263.134V351H266.134V337.84C266.134 334.72 268.454 332.52 271.734 332.52C274.534 332.52 276.494 334.88 276.494 338.24V351H279.494V337.84C279.494 334.72 281.814 332.52 285.094 332.52C287.894 332.52 289.854 334.88 289.854 338.24V351H292.854V337.84C292.854 333.16 289.814 329.84 285.494 329.84ZM315.075 323.04V334.2C313.515 331.48 310.875 329.84 307.555 329.84C302.115 329.84 298.035 334.32 298.035 340.64C298.035 347 302.115 351.48 307.555 351.48C310.875 351.48 313.515 349.84 315.075 347.12V351H318.075V323.04H315.075ZM308.115 348.8C304.075 348.8 301.195 345.4 301.195 340.64C301.195 335.88 304.075 332.52 308.115 332.52C312.195 332.52 315.075 335.88 315.075 340.64C315.075 345.4 312.195 348.8 308.115 348.8ZM83.52 371.56C84.6 371.56 85.48 370.64 85.48 369.56C85.48 368.52 84.6 367.6 83.52 367.6C82.4 367.6 81.52 368.52 81.52 369.56C81.52 370.64 82.4 371.56 83.52 371.56ZM82 396H85V375.32H82V396ZM100.864 374.84C97.9444 374.84 95.2644 376.44 94.0644 378.64V375.32H91.0644V396H94.0644V382.84C94.0644 379.96 96.9844 377.52 100.464 377.52C103.504 377.52 105.624 379.88 105.624 383.24V396H108.624V382.84C108.624 378.16 105.424 374.84 100.864 374.84ZM130.856 368.04V379.2C129.296 376.48 126.656 374.84 123.336 374.84C117.896 374.84 113.816 379.32 113.816 385.64C113.816 392 117.896 396.48 123.336 396.48C126.656 396.48 129.296 394.84 130.856 392.12V396H133.856V368.04H130.856ZM123.896 393.8C119.856 393.8 116.976 390.4 116.976 385.64C116.976 380.88 119.856 377.52 123.896 377.52C127.976 377.52 130.856 380.88 130.856 385.64C130.856 390.4 127.976 393.8 123.896 393.8ZM149.524 393.8C145.444 393.8 142.604 390.84 142.164 386.8H159.084C159.084 379.56 155.524 374.84 149.284 374.84C143.724 374.84 139.084 379.44 139.084 385.6C139.084 391.96 144.044 396.48 149.564 396.48C152.444 396.48 156.084 395.24 157.884 393.28L156.044 391.32C154.764 392.72 151.964 393.8 149.524 393.8ZM149.404 377.52C153.524 377.52 155.724 380.4 156.124 384.12H142.204C142.764 380.12 145.724 377.52 149.404 377.52ZM181.713 396L173.753 385.44L181.393 375.32H177.873L171.993 383.12L166.073 375.32H162.553L170.233 385.44L162.233 396H165.753L171.993 387.76L178.193 396H181.713ZM188.104 396.48C189.264 396.48 190.224 395.48 190.224 394.28C190.224 393.16 189.264 392.16 188.104 392.16C186.864 392.16 185.904 393.16 185.904 394.28C185.904 395.48 186.864 396.48 188.104 396.48ZM203.462 396.48C207.742 396.48 211.022 394.04 211.022 390.24C211.022 386.32 207.582 385.2 204.262 384.16C200.422 382.92 198.902 382.36 198.902 380.56C198.902 378.56 200.822 377.52 203.142 377.52C204.982 377.52 207.022 378.16 209.102 379.48L210.542 377.16C208.342 375.72 205.702 374.84 203.142 374.84C199.022 374.84 195.902 377.16 195.902 380.92C195.902 383.88 197.822 385.36 202.822 386.8C205.622 387.6 208.022 388.32 208.022 390.56C208.022 392.52 206.182 393.8 203.462 393.8C201.182 393.8 198.822 392.92 196.462 391.2L194.902 393.4C197.382 395.4 200.582 396.48 203.462 396.48ZM222.825 396H225.705L234.385 375.32H231.025L224.265 392.48L217.385 375.32H214.025L222.825 396ZM254.604 375.32V378.88C253.004 376.36 250.364 374.84 247.084 374.84C241.524 374.84 237.564 378.88 237.564 384.64C237.564 390.4 241.524 394.48 247.084 394.48C250.364 394.48 253.004 392.96 254.604 390.44V393.8C254.604 397.84 251.804 400.2 247.044 400.2C244.484 400.2 242.004 399.28 240.404 397.76L239.084 400.12C240.964 401.72 244.084 402.88 247.444 402.88C253.404 402.88 257.604 399.12 257.604 393.8V375.32H254.604ZM247.644 391.8C243.604 391.8 240.724 388.84 240.724 384.64C240.724 380.48 243.604 377.52 247.644 377.52C251.724 377.52 254.604 380.48 254.604 384.64C254.604 388.84 251.724 391.8 247.644 391.8Z" fill="white"/>
<line x1="55" y1="180" x2="55" y2="396" stroke="white" stroke-width="8"/>
</svg>
