<svg width="500" height="500" viewBox="0 0 500 500" fill="none" xmlns="http://www.w3.org/2000/svg">
<rect y="66.4062" width="500" height="367.188" rx="59.1797" fill="#28562D"/>
<path d="M37.2 161.84C41.54 161.84 45.11 158.13 45.11 153.58C45.11 149.38 41.54 145.67 37.2 145.67C32.51 145.67 28.94 149.38 28.94 153.58C28.94 158.13 32.51 161.84 37.2 161.84ZM45.9817 166.18H59.9817L83.7817 108.99H69.7817L45.9817 166.18ZM100.523 161.84C110.323 161.84 116.273 157.08 116.273 149.59C116.273 141.05 108.713 138.88 102.133 137.41C98.4932 136.57 96.8832 136.36 96.8832 135.17C96.8832 134.12 98.1432 133.14 100.033 133.14C103.463 133.14 107.593 135.03 110.603 136.99L115.153 128.73C111.023 126 105.633 123.97 100.033 123.97C90.5832 123.97 84.9132 129.43 84.9132 136.43C84.9132 144.97 92.2632 146.58 98.8432 147.98C102.203 148.68 104.303 149.38 104.303 150.64C104.303 151.83 103.393 152.46 100.873 152.46C97.0232 152.46 91.8432 150.64 88.3432 148.19L83.3032 156.38C87.7132 159.81 94.2232 161.84 100.523 161.84ZM135.023 131.25V124.81H121.513V161H135.023V145.67C135.023 139.09 139.223 135.17 146.363 135.17V123.97C141.463 123.97 137.403 126.77 135.023 131.25ZM169.596 161.84C176.316 161.84 181.426 159.11 185.066 154.91L176.176 147.77C174.706 149.45 172.046 150.64 169.736 150.64C165.606 150.64 162.176 147.07 162.176 142.8C162.176 138.67 165.606 135.17 169.666 135.17C171.976 135.17 174.566 136.36 175.966 137.97L184.856 130.69C181.356 126.63 176.246 123.97 169.806 123.97C158.676 123.97 149.296 132.58 149.296 142.87C149.296 153.16 158.606 161.84 169.596 161.84ZM183.999 166.18H197.999L221.799 108.99H207.799L183.999 166.18Z" fill="white"/>
<path d="M90.44 194.84C88.44 194.84 85.96 195.36 83 196.84L84.2 199.28C86.08 198.32 88.16 197.4 90.24 197.4C94.72 197.4 95.84 200.6 95.84 203.4V204.16C93.72 203.48 91.36 203 89.12 203C84.68 203 81 205.76 81 209.88C81 213.96 84.2 216.48 88.56 216.48C91.28 216.48 94.36 215.2 95.84 212.76V216H98.84V203.4C98.84 198.4 96.08 194.84 90.44 194.84ZM89.08 213.84C86.16 213.84 83.92 212.32 83.92 209.76C83.92 207.28 86.52 205.52 89.6 205.52C91.84 205.52 93.96 205.84 95.84 206.36V209.52C95.04 212.44 91.8 213.84 89.08 213.84ZM112.29 216.48C116.57 216.48 119.85 214.04 119.85 210.24C119.85 206.32 116.41 205.2 113.09 204.16C109.25 202.92 107.73 202.36 107.73 200.56C107.73 198.56 109.65 197.52 111.97 197.52C113.81 197.52 115.85 198.16 117.93 199.48L119.37 197.16C117.17 195.72 114.53 194.84 111.97 194.84C107.85 194.84 104.73 197.16 104.73 200.92C104.73 203.88 106.65 205.36 111.65 206.8C114.45 207.6 116.85 208.32 116.85 210.56C116.85 212.52 115.01 213.8 112.29 213.8C110.01 213.8 107.65 212.92 105.29 211.2L103.73 213.4C106.21 215.4 109.41 216.48 112.29 216.48ZM132.133 216.48C136.413 216.48 139.693 214.04 139.693 210.24C139.693 206.32 136.253 205.2 132.933 204.16C129.093 202.92 127.573 202.36 127.573 200.56C127.573 198.56 129.493 197.52 131.813 197.52C133.653 197.52 135.693 198.16 137.773 199.48L139.213 197.16C137.013 195.72 134.373 194.84 131.813 194.84C127.693 194.84 124.573 197.16 124.573 200.92C124.573 203.88 126.493 205.36 131.493 206.8C134.293 207.6 136.693 208.32 136.693 210.56C136.693 212.52 134.853 213.8 132.133 213.8C129.853 213.8 127.493 212.92 125.133 211.2L123.573 213.4C126.053 215.4 129.253 216.48 132.133 216.48ZM153.977 213.8C149.897 213.8 147.057 210.84 146.617 206.8H163.537C163.537 199.56 159.977 194.84 153.737 194.84C148.177 194.84 143.537 199.44 143.537 205.6C143.537 211.96 148.497 216.48 154.017 216.48C156.897 216.48 160.537 215.24 162.337 213.28L160.497 211.32C159.217 212.72 156.417 213.8 153.977 213.8ZM153.857 197.52C157.977 197.52 160.177 200.4 160.577 204.12H146.657C147.217 200.12 150.177 197.52 153.857 197.52ZM177.526 212.96C177.086 213.44 176.286 213.8 175.366 213.8C174.166 213.8 173.126 212.72 173.126 211.2V198H178.206V195.32H173.126V189.64H170.126V195.32H166.886V198H170.126V211.2C170.126 214.28 172.206 216.48 175.166 216.48C176.566 216.48 177.926 216 179.006 215.16L177.526 212.96ZM190.571 216.48C194.851 216.48 198.131 214.04 198.131 210.24C198.131 206.32 194.691 205.2 191.371 204.16C187.531 202.92 186.011 202.36 186.011 200.56C186.011 198.56 187.931 197.52 190.251 197.52C192.091 197.52 194.131 198.16 196.211 199.48L197.651 197.16C195.451 195.72 192.811 194.84 190.251 194.84C186.131 194.84 183.011 197.16 183.011 200.92C183.011 203.88 184.931 205.36 189.931 206.8C192.731 207.6 195.131 208.32 195.131 210.56C195.131 212.52 193.291 213.8 190.571 213.8C188.291 213.8 185.931 212.92 183.571 211.2L182.011 213.4C184.491 215.4 187.691 216.48 190.571 216.48ZM199.415 218.96H202.815L216.855 186.28H213.455L199.415 218.96ZM91.12 257.96C90.68 258.44 89.88 258.8 88.96 258.8C87.76 258.8 86.72 257.72 86.72 256.2V243H91.8V240.32H86.72V234.64H83.72V240.32H80.48V243H83.72V256.2C83.72 259.28 85.8 261.48 88.76 261.48C90.16 261.48 91.52 261 92.6 260.16L91.12 257.96ZM106.165 258.8C102.085 258.8 99.2447 255.84 98.8047 251.8H115.725C115.725 244.56 112.165 239.84 105.925 239.84C100.365 239.84 95.7247 244.44 95.7247 250.6C95.7247 256.96 100.685 261.48 106.205 261.48C109.085 261.48 112.725 260.24 114.525 258.28L112.685 256.32C111.405 257.72 108.605 258.8 106.165 258.8ZM106.045 242.52C110.165 242.52 112.365 245.4 112.765 249.12H98.8447C99.4047 245.12 102.365 242.52 106.045 242.52ZM142.994 239.84C139.874 239.84 137.154 241.56 136.314 244.24C135.194 241.56 132.754 239.84 129.634 239.84C126.914 239.84 124.674 241.2 123.634 243.36V240.32H120.634V261H123.634V247.84C123.634 244.72 125.954 242.52 129.234 242.52C132.034 242.52 133.994 244.88 133.994 248.24V261H136.994V247.84C136.994 244.72 139.314 242.52 142.594 242.52C145.394 242.52 147.354 244.88 147.354 248.24V261H150.354V247.84C150.354 243.16 147.314 239.84 142.994 239.84ZM167.215 239.84C163.895 239.84 161.255 241.48 159.695 244.2V240.32H156.695V267.88H159.695V257.12C161.255 259.84 163.895 261.48 167.215 261.48C172.655 261.48 176.735 257 176.735 250.64C176.735 244.32 172.655 239.84 167.215 239.84ZM166.655 258.8C162.575 258.8 159.695 255.4 159.695 250.64C159.695 245.88 162.575 242.52 166.655 242.52C170.695 242.52 173.575 245.88 173.575 250.64C173.575 255.4 170.695 258.8 166.655 258.8ZM181.923 261H184.923V233.04H181.923V261ZM199.385 239.84C197.385 239.84 194.905 240.36 191.945 241.84L193.145 244.28C195.025 243.32 197.105 242.4 199.185 242.4C203.665 242.4 204.785 245.6 204.785 248.4V249.16C202.665 248.48 200.305 248 198.065 248C193.625 248 189.945 250.76 189.945 254.88C189.945 258.96 193.145 261.48 197.505 261.48C200.225 261.48 203.305 260.2 204.785 257.76V261H207.785V248.4C207.785 243.4 205.025 239.84 199.385 239.84ZM198.025 258.84C195.105 258.84 192.865 257.32 192.865 254.76C192.865 252.28 195.465 250.52 198.545 250.52C200.785 250.52 202.905 250.84 204.785 251.36V254.52C203.985 257.44 200.745 258.84 198.025 258.84ZM222.995 257.96C222.555 258.44 221.755 258.8 220.835 258.8C219.635 258.8 218.595 257.72 218.595 256.2V243H223.675V240.32H218.595V234.64H215.595V240.32H212.355V243H215.595V256.2C215.595 259.28 217.675 261.48 220.635 261.48C222.035 261.48 223.395 261 224.475 260.16L222.995 257.96ZM238.04 258.8C233.96 258.8 231.12 255.84 230.68 251.8H247.6C247.6 244.56 244.04 239.84 237.8 239.84C232.24 239.84 227.6 244.44 227.6 250.6C227.6 256.96 232.56 261.48 238.08 261.48C240.96 261.48 244.6 260.24 246.4 258.28L244.56 256.32C243.28 257.72 240.48 258.8 238.04 258.8ZM237.92 242.52C242.04 242.52 244.24 245.4 244.64 249.12H230.72C231.28 245.12 234.24 242.52 237.92 242.52ZM259.829 261.48C264.109 261.48 267.389 259.04 267.389 255.24C267.389 251.32 263.949 250.2 260.629 249.16C256.789 247.92 255.269 247.36 255.269 245.56C255.269 243.56 257.189 242.52 259.509 242.52C261.349 242.52 263.389 243.16 265.469 244.48L266.909 242.16C264.709 240.72 262.069 239.84 259.509 239.84C255.389 239.84 252.269 242.16 252.269 245.92C252.269 248.88 254.189 250.36 259.189 251.8C261.989 252.6 264.389 253.32 264.389 255.56C264.389 257.52 262.549 258.8 259.829 258.8C257.549 258.8 255.189 257.92 252.829 256.2L251.269 258.4C253.749 260.4 256.949 261.48 259.829 261.48ZM268.672 263.96H272.073L286.113 231.28H282.713L268.672 263.96ZM83.52 281.56C84.6 281.56 85.48 280.64 85.48 279.56C85.48 278.52 84.6 277.6 83.52 277.6C82.4 277.6 81.52 278.52 81.52 279.56C81.52 280.64 82.4 281.56 83.52 281.56ZM82 306H85V285.32H82V306ZM100.864 284.84C97.9444 284.84 95.2644 286.44 94.0644 288.64V285.32H91.0644V306H94.0644V292.84C94.0644 289.96 96.9844 287.52 100.464 287.52C103.504 287.52 105.624 289.88 105.624 293.24V306H108.624V292.84C108.624 288.16 105.424 284.84 100.864 284.84ZM130.856 278.04V289.2C129.296 286.48 126.656 284.84 123.336 284.84C117.896 284.84 113.816 289.32 113.816 295.64C113.816 302 117.896 306.48 123.336 306.48C126.656 306.48 129.296 304.84 130.856 302.12V306H133.856V278.04H130.856ZM123.896 303.8C119.856 303.8 116.976 300.4 116.976 295.64C116.976 290.88 119.856 287.52 123.896 287.52C127.976 287.52 130.856 290.88 130.856 295.64C130.856 300.4 127.976 303.8 123.896 303.8ZM149.524 303.8C145.444 303.8 142.604 300.84 142.164 296.8H159.084C159.084 289.56 155.524 284.84 149.284 284.84C143.724 284.84 139.084 289.44 139.084 295.6C139.084 301.96 144.044 306.48 149.564 306.48C152.444 306.48 156.084 305.24 157.884 303.28L156.044 301.32C154.764 302.72 151.964 303.8 149.524 303.8ZM149.404 287.52C153.524 287.52 155.724 290.4 156.124 294.12H142.204C142.764 290.12 145.724 287.52 149.404 287.52ZM181.713 306L173.753 295.44L181.393 285.32H177.873L171.993 293.12L166.073 285.32H162.553L170.233 295.44L162.233 306H165.753L171.993 297.76L178.193 306H181.713ZM188.104 306.48C189.264 306.48 190.224 305.48 190.224 304.28C190.224 303.16 189.264 302.16 188.104 302.16C186.864 302.16 185.904 303.16 185.904 304.28C185.904 305.48 186.864 306.48 188.104 306.48ZM205.742 306.48C208.622 306.48 211.262 305.28 213.222 303.32L211.142 301.28C209.742 302.84 207.822 303.8 205.742 303.8C201.622 303.8 198.182 300.08 198.182 295.64C198.182 291.24 201.622 287.52 205.742 287.52C207.782 287.52 209.662 288.44 211.022 289.92L213.102 287.88C211.142 286 208.542 284.84 205.742 284.84C199.942 284.84 195.022 289.76 195.022 295.64C195.022 301.52 199.942 306.48 205.742 306.48ZM225.141 306.48C229.421 306.48 232.701 304.04 232.701 300.24C232.701 296.32 229.261 295.2 225.941 294.16C222.101 292.92 220.581 292.36 220.581 290.56C220.581 288.56 222.501 287.52 224.821 287.52C226.661 287.52 228.701 288.16 230.781 289.48L232.221 287.16C230.021 285.72 227.381 284.84 224.821 284.84C220.701 284.84 217.581 287.16 217.581 290.92C217.581 293.88 219.501 295.36 224.501 296.8C227.301 297.6 229.701 298.32 229.701 300.56C229.701 302.52 227.861 303.8 225.141 303.8C222.861 303.8 220.501 302.92 218.141 301.2L216.581 303.4C219.061 305.4 222.261 306.48 225.141 306.48ZM244.985 306.48C249.265 306.48 252.545 304.04 252.545 300.24C252.545 296.32 249.105 295.2 245.785 294.16C241.945 292.92 240.425 292.36 240.425 290.56C240.425 288.56 242.345 287.52 244.665 287.52C246.505 287.52 248.545 288.16 250.625 289.48L252.065 287.16C249.865 285.72 247.225 284.84 244.665 284.84C240.545 284.84 237.425 287.16 237.425 290.92C237.425 293.88 239.345 295.36 244.345 296.8C247.145 297.6 249.545 298.32 249.545 300.56C249.545 302.52 247.705 303.8 244.985 303.8C242.705 303.8 240.345 302.92 237.985 301.2L236.425 303.4C238.905 305.4 242.105 306.48 244.985 306.48ZM83.52 326.56C84.6 326.56 85.48 325.64 85.48 324.56C85.48 323.52 84.6 322.6 83.52 322.6C82.4 322.6 81.52 323.52 81.52 324.56C81.52 325.64 82.4 326.56 83.52 326.56ZM82 351H85V330.32H82V351ZM100.864 329.84C97.9444 329.84 95.2644 331.44 94.0644 333.64V330.32H91.0644V351H94.0644V337.84C94.0644 334.96 96.9844 332.52 100.464 332.52C103.504 332.52 105.624 334.88 105.624 338.24V351H108.624V337.84C108.624 333.16 105.424 329.84 100.864 329.84ZM130.856 323.04V334.2C129.296 331.48 126.656 329.84 123.336 329.84C117.896 329.84 113.816 334.32 113.816 340.64C113.816 347 117.896 351.48 123.336 351.48C126.656 351.48 129.296 349.84 130.856 347.12V351H133.856V323.04H130.856ZM123.896 348.8C119.856 348.8 116.976 345.4 116.976 340.64C116.976 335.88 119.856 332.52 123.896 332.52C127.976 332.52 130.856 335.88 130.856 340.64C130.856 345.4 127.976 348.8 123.896 348.8ZM149.524 348.8C145.444 348.8 142.604 345.84 142.164 341.8H159.084C159.084 334.56 155.524 329.84 149.284 329.84C143.724 329.84 139.084 334.44 139.084 340.6C139.084 346.96 144.044 351.48 149.564 351.48C152.444 351.48 156.084 350.24 157.884 348.28L156.044 346.32C154.764 347.72 151.964 348.8 149.524 348.8ZM149.404 332.52C153.524 332.52 155.724 335.4 156.124 339.12H142.204C142.764 335.12 145.724 332.52 149.404 332.52ZM181.713 351L173.753 340.44L181.393 330.32H177.873L171.993 338.12L166.073 330.32H162.553L170.233 340.44L162.233 351H165.753L171.993 342.76L178.193 351H181.713ZM188.104 351.48C189.264 351.48 190.224 350.48 190.224 349.28C190.224 348.16 189.264 347.16 188.104 347.16C186.864 347.16 185.904 348.16 185.904 349.28C185.904 350.48 186.864 351.48 188.104 351.48ZM206.942 329.84C203.622 329.84 200.982 331.48 199.422 334.2V330.32H196.422V357.88H199.422V347.12C200.982 349.84 203.622 351.48 206.942 351.48C212.382 351.48 216.462 347 216.462 340.64C216.462 334.32 212.382 329.84 206.942 329.84ZM206.382 348.8C202.302 348.8 199.422 345.4 199.422 340.64C199.422 335.88 202.302 332.52 206.382 332.52C210.422 332.52 213.302 335.88 213.302 340.64C213.302 345.4 210.422 348.8 206.382 348.8ZM224.729 358.2C227.569 358.16 229.569 356.84 231.009 353.32L240.449 330.32H237.209L230.369 347.52L223.129 330.32H219.809L228.809 351.08L227.609 353.64C226.809 355.04 225.929 355.48 224.609 355.48C223.729 355.48 222.889 355.32 222.169 354.96L221.449 357.52C222.409 357.96 223.529 358.2 224.729 358.2ZM83.52 371.56C84.6 371.56 85.48 370.64 85.48 369.56C85.48 368.52 84.6 367.6 83.52 367.6C82.4 367.6 81.52 368.52 81.52 369.56C81.52 370.64 82.4 371.56 83.52 371.56ZM82 396H85V375.32H82V396ZM100.864 374.84C97.9444 374.84 95.2644 376.44 94.0644 378.64V375.32H91.0644V396H94.0644V382.84C94.0644 379.96 96.9844 377.52 100.464 377.52C103.504 377.52 105.624 379.88 105.624 383.24V396H108.624V382.84C108.624 378.16 105.424 374.84 100.864 374.84ZM130.856 368.04V379.2C129.296 376.48 126.656 374.84 123.336 374.84C117.896 374.84 113.816 379.32 113.816 385.64C113.816 392 117.896 396.48 123.336 396.48C126.656 396.48 129.296 394.84 130.856 392.12V396H133.856V368.04H130.856ZM123.896 393.8C119.856 393.8 116.976 390.4 116.976 385.64C116.976 380.88 119.856 377.52 123.896 377.52C127.976 377.52 130.856 380.88 130.856 385.64C130.856 390.4 127.976 393.8 123.896 393.8ZM149.524 393.8C145.444 393.8 142.604 390.84 142.164 386.8H159.084C159.084 379.56 155.524 374.84 149.284 374.84C143.724 374.84 139.084 379.44 139.084 385.6C139.084 391.96 144.044 396.48 149.564 396.48C152.444 396.48 156.084 395.24 157.884 393.28L156.044 391.32C154.764 392.72 151.964 393.8 149.524 393.8ZM149.404 377.52C153.524 377.52 155.724 380.4 156.124 384.12H142.204C142.764 380.12 145.724 377.52 149.404 377.52ZM181.713 396L173.753 385.44L181.393 375.32H177.873L171.993 383.12L166.073 375.32H162.553L170.233 385.44L162.233 396H165.753L171.993 387.76L178.193 396H181.713ZM188.104 396.48C189.264 396.48 190.224 395.48 190.224 394.28C190.224 393.16 189.264 392.16 188.104 392.16C186.864 392.16 185.904 393.16 185.904 394.28C185.904 395.48 186.864 396.48 188.104 396.48ZM203.462 396.48C207.742 396.48 211.022 394.04 211.022 390.24C211.022 386.32 207.582 385.2 204.262 384.16C200.422 382.92 198.902 382.36 198.902 380.56C198.902 378.56 200.822 377.52 203.142 377.52C204.982 377.52 207.022 378.16 209.102 379.48L210.542 377.16C208.342 375.72 205.702 374.84 203.142 374.84C199.022 374.84 195.902 377.16 195.902 380.92C195.902 383.88 197.822 385.36 202.822 386.8C205.622 387.6 208.022 388.32 208.022 390.56C208.022 392.52 206.182 393.8 203.462 393.8C201.182 393.8 198.822 392.92 196.462 391.2L194.902 393.4C197.382 395.4 200.582 396.48 203.462 396.48ZM222.825 396H225.705L234.385 375.32H231.025L224.265 392.48L217.385 375.32H214.025L222.825 396ZM254.604 375.32V378.88C253.004 376.36 250.364 374.84 247.084 374.84C241.524 374.84 237.564 378.88 237.564 384.64C237.564 390.4 241.524 394.48 247.084 394.48C250.364 394.48 253.004 392.96 254.604 390.44V393.8C254.604 397.84 251.804 400.2 247.044 400.2C244.484 400.2 242.004 399.28 240.404 397.76L239.084 400.12C240.964 401.72 244.084 402.88 247.444 402.88C253.404 402.88 257.604 399.12 257.604 393.8V375.32H254.604ZM247.644 391.8C243.604 391.8 240.724 388.84 240.724 384.64C240.724 380.48 243.604 377.52 247.644 377.52C251.724 377.52 254.604 380.48 254.604 384.64C254.604 388.84 251.724 391.8 247.644 391.8Z" fill="white"/>
<line x1="55" y1="180" x2="55" y2="396" stroke="white" stroke-width="8"/>
</svg>
