<svg width="500" height="500" viewBox="0 0 500 500" fill="none" xmlns="http://www.w3.org/2000/svg">
<rect y="66.4062" width="500" height="367.188" rx="59.1797" fill="#56282D"/>
<path d="M32 225.54H65.21V216H32V225.54Z" fill="white"/>
<path d="M99.8706 283.77H117.871L87.2705 210.24H69.2705L99.8706 283.77Z" fill="white"/>
<path d="M115.095 291.42H168.735V282.6H115.095V291.42Z" fill="white"/>
<path d="M193.467 292.41L202.197 283.14C193.197 273.87 189.417 265.14 189.417 253.26C189.417 241.29 193.197 232.56 202.197 223.29L193.467 214.11C180.327 222.75 172.407 236.88 172.407 253.26C172.407 269.55 180.327 283.77 193.467 292.41Z" fill="white"/>
<path d="M247.23 207L235.98 210.69C238.68 216.27 243.63 229.32 245.34 235.08L256.68 231.12C254.97 225.27 249.48 211.41 247.23 207ZM288.36 214.2L274.86 210.33C273.33 224.1 267.75 239.58 261 248.13C251.82 259.74 237.78 267.84 225.45 271.35L235.53 281.43C248.4 276.57 261.45 267.48 270.9 255.06C278.37 245.25 283.5 230.94 286.02 221.13C286.56 219.15 287.37 216.45 288.36 214.2ZM222.21 212.58L210.69 216.54C213.3 221.4 219.24 236.16 221.04 242.01L232.65 237.78C230.58 231.66 224.91 218.25 222.21 212.58Z" fill="white"/>
<path d="M305.82 292.41C318.96 283.77 326.88 269.55 326.88 253.26C326.88 236.88 318.96 222.75 305.82 214.11L297.09 223.29C306.09 232.56 309.87 241.29 309.87 253.26C309.87 265.14 306.09 273.87 297.09 283.14L305.82 292.41Z" fill="white"/>
<path d="M330.603 291.42H384.243V282.6H330.603V291.42Z" fill="white"/>
<path d="M381.435 283.77H399.435L430.035 210.24H412.035L381.435 283.77Z" fill="white"/>
<path d="M434.1 225.54H467.31V216H434.1V225.54Z" fill="white"/>
</svg>
